<mxfile host="app.diagrams.net" modified="2024-02-22T01:06:24.495Z" agent="Mozilla/5.0 (Windows NT 10.0; Win64; x64) AppleWebKit/537.36 (KHTML, like Gecko) Chrome/121.0.0.0 Safari/537.36" etag="3hdGCdOyuDSs8zYf-brt" version="23.1.4" type="github">
  <diagram name="Страница — 1" id="vNdqiaYz6GEFntoDSO0g">
    <mxGraphModel dx="832" dy="497" grid="1" gridSize="10" guides="1" tooltips="1" connect="1" arrows="1" fold="1" page="1" pageScale="1" pageWidth="827" pageHeight="1169" math="0" shadow="0">
      <root>
        <mxCell id="0" />
        <mxCell id="1" parent="0" />
        <mxCell id="MwMUZstNOLR6DHbxSXbE-1" value="Unregistered&lt;br&gt;User" style="shape=umlActor;verticalLabelPosition=bottom;verticalAlign=top;html=1;outlineConnect=0;" vertex="1" parent="1">
          <mxGeometry x="310" y="20" width="30" height="60" as="geometry" />
        </mxCell>
        <mxCell id="MwMUZstNOLR6DHbxSXbE-2" value="" style="endArrow=none;html=1;rounded=0;exitX=0.5;exitY=0.5;exitDx=0;exitDy=0;exitPerimeter=0;" edge="1" parent="1" source="MwMUZstNOLR6DHbxSXbE-1" target="MwMUZstNOLR6DHbxSXbE-3">
          <mxGeometry width="50" height="50" relative="1" as="geometry">
            <mxPoint x="320" y="110" as="sourcePoint" />
            <mxPoint x="200" y="130" as="targetPoint" />
          </mxGeometry>
        </mxCell>
        <mxCell id="MwMUZstNOLR6DHbxSXbE-3" value="Sign in" style="ellipse;whiteSpace=wrap;html=1;" vertex="1" parent="1">
          <mxGeometry x="460" y="80" width="120" height="50" as="geometry" />
        </mxCell>
        <mxCell id="MwMUZstNOLR6DHbxSXbE-4" value="" style="endArrow=none;html=1;rounded=0;exitX=0.5;exitY=0.5;exitDx=0;exitDy=0;exitPerimeter=0;entryX=0;entryY=0.5;entryDx=0;entryDy=0;" edge="1" parent="1" source="MwMUZstNOLR6DHbxSXbE-1" target="MwMUZstNOLR6DHbxSXbE-5">
          <mxGeometry width="50" height="50" relative="1" as="geometry">
            <mxPoint x="210" y="290" as="sourcePoint" />
            <mxPoint x="200" y="200" as="targetPoint" />
          </mxGeometry>
        </mxCell>
        <mxCell id="MwMUZstNOLR6DHbxSXbE-5" value="Sign up" style="ellipse;whiteSpace=wrap;html=1;" vertex="1" parent="1">
          <mxGeometry x="100" y="100" width="120" height="50" as="geometry" />
        </mxCell>
        <mxCell id="MwMUZstNOLR6DHbxSXbE-6" value="Server + DB" style="ellipse;shape=cloud;whiteSpace=wrap;html=1;" vertex="1" parent="1">
          <mxGeometry x="250" y="130" width="120" height="80" as="geometry" />
        </mxCell>
        <mxCell id="MwMUZstNOLR6DHbxSXbE-7" value="" style="endArrow=none;html=1;rounded=0;exitX=0.5;exitY=1;exitDx=0;exitDy=0;entryX=0.142;entryY=0.302;entryDx=0;entryDy=0;entryPerimeter=0;" edge="1" parent="1" source="MwMUZstNOLR6DHbxSXbE-5" target="MwMUZstNOLR6DHbxSXbE-6">
          <mxGeometry width="50" height="50" relative="1" as="geometry">
            <mxPoint x="430" y="160" as="sourcePoint" />
            <mxPoint x="480" y="110" as="targetPoint" />
          </mxGeometry>
        </mxCell>
        <mxCell id="MwMUZstNOLR6DHbxSXbE-9" value="" style="endArrow=none;html=1;rounded=0;exitX=0.5;exitY=1;exitDx=0;exitDy=0;entryX=0.875;entryY=0.5;entryDx=0;entryDy=0;entryPerimeter=0;" edge="1" parent="1" source="MwMUZstNOLR6DHbxSXbE-3" target="MwMUZstNOLR6DHbxSXbE-6">
          <mxGeometry width="50" height="50" relative="1" as="geometry">
            <mxPoint x="460" y="240" as="sourcePoint" />
            <mxPoint x="510" y="190" as="targetPoint" />
          </mxGeometry>
        </mxCell>
        <mxCell id="MwMUZstNOLR6DHbxSXbE-10" value="" style="endArrow=classic;html=1;rounded=0;exitX=0.347;exitY=1.011;exitDx=0;exitDy=0;exitPerimeter=0;entryX=0.25;entryY=0.1;entryDx=0;entryDy=0;entryPerimeter=0;" edge="1" parent="1" source="MwMUZstNOLR6DHbxSXbE-5" target="MwMUZstNOLR6DHbxSXbE-12">
          <mxGeometry width="50" height="50" relative="1" as="geometry">
            <mxPoint x="230" y="320" as="sourcePoint" />
            <mxPoint x="300" y="300" as="targetPoint" />
          </mxGeometry>
        </mxCell>
        <mxCell id="MwMUZstNOLR6DHbxSXbE-11" value="" style="endArrow=classic;html=1;rounded=0;exitX=0.624;exitY=1.031;exitDx=0;exitDy=0;exitPerimeter=0;entryX=0.75;entryY=0.1;entryDx=0;entryDy=0;entryPerimeter=0;" edge="1" parent="1" source="MwMUZstNOLR6DHbxSXbE-3" target="MwMUZstNOLR6DHbxSXbE-12">
          <mxGeometry width="50" height="50" relative="1" as="geometry">
            <mxPoint x="410" y="310" as="sourcePoint" />
            <mxPoint x="360" y="300" as="targetPoint" />
          </mxGeometry>
        </mxCell>
        <mxCell id="MwMUZstNOLR6DHbxSXbE-12" value="Default&lt;br&gt;User" style="shape=umlActor;verticalLabelPosition=bottom;verticalAlign=top;html=1;outlineConnect=0;" vertex="1" parent="1">
          <mxGeometry x="230" y="335" width="30" height="60" as="geometry" />
        </mxCell>
        <mxCell id="MwMUZstNOLR6DHbxSXbE-14" value="Admin" style="shape=umlActor;verticalLabelPosition=bottom;verticalAlign=top;html=1;outlineConnect=0;" vertex="1" parent="1">
          <mxGeometry x="700" y="390" width="30" height="60" as="geometry" />
        </mxCell>
        <mxCell id="MwMUZstNOLR6DHbxSXbE-23" value="" style="endArrow=classic;html=1;rounded=0;exitX=1;exitY=1;exitDx=0;exitDy=0;entryX=0.5;entryY=0;entryDx=0;entryDy=0;entryPerimeter=0;" edge="1" parent="1" source="MwMUZstNOLR6DHbxSXbE-3" target="MwMUZstNOLR6DHbxSXbE-14">
          <mxGeometry width="50" height="50" relative="1" as="geometry">
            <mxPoint x="580" y="260" as="sourcePoint" />
            <mxPoint x="630" y="210" as="targetPoint" />
          </mxGeometry>
        </mxCell>
        <mxCell id="MwMUZstNOLR6DHbxSXbE-24" value="Encrypt" style="ellipse;whiteSpace=wrap;html=1;" vertex="1" parent="1">
          <mxGeometry x="60" y="330" width="110" height="50" as="geometry" />
        </mxCell>
        <mxCell id="MwMUZstNOLR6DHbxSXbE-25" value="Hash" style="ellipse;whiteSpace=wrap;html=1;" vertex="1" parent="1">
          <mxGeometry x="50" y="420" width="110" height="50" as="geometry" />
        </mxCell>
        <mxCell id="MwMUZstNOLR6DHbxSXbE-26" value="" style="endArrow=none;html=1;rounded=0;entryX=0.5;entryY=0.5;entryDx=0;entryDy=0;entryPerimeter=0;" edge="1" parent="1" source="MwMUZstNOLR6DHbxSXbE-24" target="MwMUZstNOLR6DHbxSXbE-12">
          <mxGeometry width="50" height="50" relative="1" as="geometry">
            <mxPoint x="90" y="450" as="sourcePoint" />
            <mxPoint x="140" y="400" as="targetPoint" />
          </mxGeometry>
        </mxCell>
        <mxCell id="MwMUZstNOLR6DHbxSXbE-27" value="" style="endArrow=none;html=1;rounded=0;exitX=0.659;exitY=-0.031;exitDx=0;exitDy=0;exitPerimeter=0;" edge="1" parent="1" source="MwMUZstNOLR6DHbxSXbE-25" target="MwMUZstNOLR6DHbxSXbE-12">
          <mxGeometry width="50" height="50" relative="1" as="geometry">
            <mxPoint x="310" y="460" as="sourcePoint" />
            <mxPoint x="200" y="360" as="targetPoint" />
          </mxGeometry>
        </mxCell>
        <mxCell id="MwMUZstNOLR6DHbxSXbE-29" value="Request personal statistics" style="ellipse;whiteSpace=wrap;html=1;" vertex="1" parent="1">
          <mxGeometry x="250" y="550" width="110" height="50" as="geometry" />
        </mxCell>
        <mxCell id="MwMUZstNOLR6DHbxSXbE-30" value="" style="endArrow=none;html=1;rounded=0;exitX=1;exitY=0.5;exitDx=0;exitDy=0;entryX=0;entryY=0.5;entryDx=0;entryDy=0;" edge="1" parent="1" source="MwMUZstNOLR6DHbxSXbE-25" target="MwMUZstNOLR6DHbxSXbE-29">
          <mxGeometry width="50" height="50" relative="1" as="geometry">
            <mxPoint x="190" y="540" as="sourcePoint" />
            <mxPoint x="240" y="490" as="targetPoint" />
          </mxGeometry>
        </mxCell>
        <mxCell id="MwMUZstNOLR6DHbxSXbE-31" value="" style="endArrow=none;html=1;rounded=0;exitX=0.678;exitY=-0.011;exitDx=0;exitDy=0;exitPerimeter=0;entryX=0.47;entryY=0.961;entryDx=0;entryDy=0;entryPerimeter=0;" edge="1" parent="1" source="MwMUZstNOLR6DHbxSXbE-29" target="MwMUZstNOLR6DHbxSXbE-6">
          <mxGeometry width="50" height="50" relative="1" as="geometry">
            <mxPoint x="350" y="420" as="sourcePoint" />
            <mxPoint x="400" y="370" as="targetPoint" />
          </mxGeometry>
        </mxCell>
        <mxCell id="MwMUZstNOLR6DHbxSXbE-32" value="" style="endArrow=none;html=1;rounded=0;entryX=0;entryY=1;entryDx=0;entryDy=0;entryPerimeter=0;exitX=0.954;exitY=0.226;exitDx=0;exitDy=0;exitPerimeter=0;" edge="1" parent="1" source="MwMUZstNOLR6DHbxSXbE-29" target="MwMUZstNOLR6DHbxSXbE-14">
          <mxGeometry width="50" height="50" relative="1" as="geometry">
            <mxPoint x="460" y="420" as="sourcePoint" />
            <mxPoint x="510" y="370" as="targetPoint" />
          </mxGeometry>
        </mxCell>
        <mxCell id="MwMUZstNOLR6DHbxSXbE-34" value="Request&amp;nbsp; all statistics" style="ellipse;whiteSpace=wrap;html=1;" vertex="1" parent="1">
          <mxGeometry x="350" y="440" width="110" height="50" as="geometry" />
        </mxCell>
        <mxCell id="MwMUZstNOLR6DHbxSXbE-35" value="" style="endArrow=none;html=1;rounded=0;exitX=0.958;exitY=0.813;exitDx=0;exitDy=0;exitPerimeter=0;" edge="1" parent="1" source="MwMUZstNOLR6DHbxSXbE-34" target="MwMUZstNOLR6DHbxSXbE-14">
          <mxGeometry width="50" height="50" relative="1" as="geometry">
            <mxPoint x="490" y="410" as="sourcePoint" />
            <mxPoint x="540" y="360" as="targetPoint" />
          </mxGeometry>
        </mxCell>
        <mxCell id="MwMUZstNOLR6DHbxSXbE-36" value="" style="endArrow=none;html=1;rounded=0;exitX=0;exitY=0;exitDx=0;exitDy=0;entryX=0.79;entryY=0.91;entryDx=0;entryDy=0;entryPerimeter=0;" edge="1" parent="1" source="MwMUZstNOLR6DHbxSXbE-34" target="MwMUZstNOLR6DHbxSXbE-6">
          <mxGeometry width="50" height="50" relative="1" as="geometry">
            <mxPoint x="350" y="330" as="sourcePoint" />
            <mxPoint x="400" y="280" as="targetPoint" />
          </mxGeometry>
        </mxCell>
        <mxCell id="MwMUZstNOLR6DHbxSXbE-37" value="Edit statistics" style="ellipse;whiteSpace=wrap;html=1;" vertex="1" parent="1">
          <mxGeometry x="370" y="340" width="110" height="50" as="geometry" />
        </mxCell>
        <mxCell id="MwMUZstNOLR6DHbxSXbE-38" value="" style="endArrow=none;html=1;rounded=0;entryX=0.801;entryY=0.941;entryDx=0;entryDy=0;entryPerimeter=0;" edge="1" parent="1" source="MwMUZstNOLR6DHbxSXbE-14" target="MwMUZstNOLR6DHbxSXbE-37">
          <mxGeometry width="50" height="50" relative="1" as="geometry">
            <mxPoint x="550" y="330" as="sourcePoint" />
            <mxPoint x="600" y="280" as="targetPoint" />
          </mxGeometry>
        </mxCell>
        <mxCell id="MwMUZstNOLR6DHbxSXbE-41" value="Successful or not" style="edgeLabel;html=1;align=center;verticalAlign=middle;resizable=0;points=[];" vertex="1" connectable="0" parent="MwMUZstNOLR6DHbxSXbE-38">
          <mxGeometry x="0.103" relative="1" as="geometry">
            <mxPoint x="-1" as="offset" />
          </mxGeometry>
        </mxCell>
        <mxCell id="MwMUZstNOLR6DHbxSXbE-39" value="" style="endArrow=none;html=1;rounded=0;exitX=0;exitY=0;exitDx=0;exitDy=0;entryX=0.89;entryY=0.804;entryDx=0;entryDy=0;entryPerimeter=0;" edge="1" parent="1" source="MwMUZstNOLR6DHbxSXbE-37" target="MwMUZstNOLR6DHbxSXbE-6">
          <mxGeometry width="50" height="50" relative="1" as="geometry">
            <mxPoint x="480" y="250" as="sourcePoint" />
            <mxPoint x="530" y="200" as="targetPoint" />
          </mxGeometry>
        </mxCell>
        <mxCell id="MwMUZstNOLR6DHbxSXbE-43" value="Delete user" style="ellipse;whiteSpace=wrap;html=1;" vertex="1" parent="1">
          <mxGeometry x="490" y="240" width="110" height="50" as="geometry" />
        </mxCell>
        <mxCell id="MwMUZstNOLR6DHbxSXbE-44" value="" style="endArrow=none;html=1;rounded=0;exitX=0.25;exitY=0.1;exitDx=0;exitDy=0;exitPerimeter=0;entryX=0.792;entryY=0.959;entryDx=0;entryDy=0;entryPerimeter=0;" edge="1" parent="1" source="MwMUZstNOLR6DHbxSXbE-14" target="MwMUZstNOLR6DHbxSXbE-43">
          <mxGeometry width="50" height="50" relative="1" as="geometry">
            <mxPoint x="450" y="300" as="sourcePoint" />
            <mxPoint x="500" y="250" as="targetPoint" />
          </mxGeometry>
        </mxCell>
        <mxCell id="MwMUZstNOLR6DHbxSXbE-46" value="Successful or not" style="edgeLabel;html=1;align=center;verticalAlign=middle;resizable=0;points=[];" vertex="1" connectable="0" parent="MwMUZstNOLR6DHbxSXbE-44">
          <mxGeometry x="0.2909" y="1" relative="1" as="geometry">
            <mxPoint as="offset" />
          </mxGeometry>
        </mxCell>
        <mxCell id="MwMUZstNOLR6DHbxSXbE-45" value="" style="endArrow=none;html=1;rounded=0;entryX=0;entryY=0;entryDx=0;entryDy=0;exitX=0.943;exitY=0.611;exitDx=0;exitDy=0;exitPerimeter=0;" edge="1" parent="1" source="MwMUZstNOLR6DHbxSXbE-6" target="MwMUZstNOLR6DHbxSXbE-43">
          <mxGeometry width="50" height="50" relative="1" as="geometry">
            <mxPoint x="420" y="290" as="sourcePoint" />
            <mxPoint x="470" y="240" as="targetPoint" />
          </mxGeometry>
        </mxCell>
      </root>
    </mxGraphModel>
  </diagram>
</mxfile>
